<?xml version="1.0" encoding="iso-8859-1"?>
<!-- Uploaded to: SVG Repo, www.svgrepo.com, Generator: SVG Repo Mixer Tools -->
<svg version="1.1" id="Capa_1" xmlns="http://www.w3.org/2000/svg" xmlns:xlink="http://www.w3.org/1999/xlink" 
	 viewBox="0 0 431.762 431.762" xml:space="preserve">
<g>
	<path style="fill:#9D6F43;" d="M174.254,311.859l41.626,41.626l41.627-41.626l-41.627-41.624L174.254,311.859z M219.062,290.474
		l18.205,18.203c0.844,0.845,1.318,1.989,1.318,3.183c0,1.193-0.474,2.338-1.318,3.182l-18.205,18.204
		c-0.844,0.845-1.989,1.318-3.182,1.318c-1.193,0-2.338-0.475-3.182-1.318l-18.203-18.204c-1.757-1.757-1.757-4.607,0-6.363
		l18.203-18.203C214.456,288.716,217.305,288.719,219.062,290.474z"/>
	
		<rect x="271.692" y="212.248" transform="matrix(0.7071 0.7071 -0.7071 0.7071 233.3084 -131.4557)" style="fill:#EDCB48;" width="7.265" height="7.265"/>
	
		<rect x="271.692" y="308.228" transform="matrix(0.7071 0.7071 -0.7071 0.7071 301.1592 -103.3419)" style="fill:#EDCB48;" width="7.264" height="7.264"/>
	
		<rect x="207.509" y="111.53" transform="matrix(-0.7071 -0.7071 0.7071 -0.7071 283.7515 357.3357)" style="fill:#CCB683;" width="16.743" height="16.744"/>
	
		<rect x="152.806" y="308.229" transform="matrix(-0.7071 -0.7071 0.7071 -0.7071 46.5535 643.0026)" style="fill:#EDCB48;" width="7.263" height="7.264"/>
	
		<rect x="207.509" y="207.509" transform="matrix(-0.7071 -0.7071 0.7071 -0.7071 215.874 521.1824)" style="fill:#CCB683;" width="16.744" height="16.745"/>
	<path style="fill:#9D6F43;" d="M174.254,215.881l41.626,41.626l41.627-41.626l-41.627-41.626L174.254,215.881z M237.267,212.699
		c0.844,0.844,1.318,1.988,1.318,3.182c0,1.193-0.474,2.338-1.318,3.182l-18.205,18.204c-0.844,0.845-1.989,1.318-3.182,1.318
		c-1.193,0-2.338-0.475-3.182-1.318l-18.203-18.204c-1.757-1.757-1.757-4.606,0-6.363l18.203-18.204
		c0.844-0.844,1.989-1.318,3.182-1.318c1.193,0,2.338,0.474,3.182,1.318L237.267,212.699z"/>
	
		<rect x="255.136" y="61.434" transform="matrix(0.7071 0.7071 -0.7071 0.7071 124.7303 -165.133)" style="fill:#C35B26;" width="13.122" height="13.122"/>
	
		<rect x="163.504" y="357.207" transform="matrix(-0.7071 -0.7071 0.7071 -0.7071 33.1063 741.2477)" style="fill:#C35B26;" width="13.122" height="13.122"/>
	
		<rect x="163.504" y="61.434" transform="matrix(0.7071 0.7071 -0.7071 0.7071 97.8826 -100.3353)" style="fill:#C35B26;" width="13.122" height="13.122"/>
	<path style="fill:#9D6F43;" d="M174.254,119.902l41.626,41.624l41.627-41.624L215.88,78.276L174.254,119.902z M237.267,116.721
		c0.844,0.844,1.318,1.988,1.318,3.182c0,1.193-0.474,2.338-1.318,3.183l-18.205,18.203c-0.878,0.878-2.03,1.317-3.182,1.317
		c-1.152,0-2.303-0.439-3.182-1.318l-18.203-18.203c-1.757-1.757-1.757-4.606,0-6.363l18.203-18.204
		c0.844-0.844,1.989-1.318,3.182-1.318c1.193,0,2.338,0.474,3.182,1.318L237.267,116.721z"/>
	
		<rect x="255.136" y="357.207" transform="matrix(-0.7071 -0.7071 0.7071 -0.7071 189.5461 806.0418)" style="fill:#C35B26;" width="13.122" height="13.122"/>
	
		<rect x="152.806" y="116.271" transform="matrix(-0.7071 -0.7071 0.7071 -0.7071 182.2817 315.3032)" style="fill:#EDCB48;" width="7.263" height="7.264"/>
	
		<rect x="152.806" y="212.249" transform="matrix(-0.7071 -0.7071 0.7071 -0.7071 114.4183 479.1522)" style="fill:#EDCB48;" width="7.263" height="7.264"/>
	
		<rect x="207.508" y="303.488" transform="matrix(-0.7071 0.7071 -0.7071 -0.7071 589.0457 379.7422)" style="fill:#CCB683;" width="16.745" height="16.744"/>
	<path style="fill:#BB844C;" d="M317.343,35.46H114.42v360.843h202.923V35.46z M306.363,379.409c0,2.485-2.015,4.5-4.5,4.5H129.898
		c-2.485,0-4.5-2.015-4.5-4.5V52.354c0-2.485,2.015-4.5,4.5-4.5h171.965c2.485,0,4.5,2.015,4.5,4.5V379.409z"/>
	<path style="fill:#CCB683;" d="M280.522,64.813c0.844,0.844,1.318,1.988,1.318,3.182c0,1.193-0.474,2.338-1.318,3.182
		l-15.643,15.643c-0.879,0.879-2.03,1.318-3.182,1.318c-1.152,0-2.303-0.439-3.182-1.318l-15.644-15.643
		c-0.844-0.844-1.318-1.988-1.318-3.182c0-1.193,0.474-2.338,1.318-3.183l7.96-7.959H180.93l7.96,7.959
		c0.844,0.845,1.318,1.989,1.318,3.183c0,1.193-0.474,2.338-1.318,3.182l-15.644,15.643c-0.878,0.879-2.03,1.318-3.182,1.318
		c-1.152,0-2.303-0.439-3.182-1.318L151.24,71.177c-0.844-0.844-1.318-1.988-1.318-3.182c0-1.193,0.474-2.338,1.318-3.182l7.96-7.96
		h-24.802v318.056h24.802l-7.96-7.96c-1.758-1.757-1.758-4.607,0-6.363l15.643-15.644c0.844-0.844,1.989-1.318,3.182-1.318
		s2.338,0.474,3.182,1.318l15.644,15.644c0.844,0.844,1.318,1.988,1.318,3.182c0,1.193-0.474,2.338-1.318,3.183l-7.96,7.959h69.902
		l-7.96-7.959c-0.844-0.845-1.318-1.989-1.318-3.183c0-1.193,0.474-2.338,1.318-3.182l15.644-15.644
		c0.844-0.844,1.989-1.318,3.182-1.318s2.338,0.475,3.182,1.318l15.643,15.644c1.757,1.757,1.757,4.606,0,6.363l-7.96,7.96h24.802
		V56.854h-24.802L280.522,64.813z M291.325,119.902c0,1.193-0.474,2.338-1.318,3.182l-11.501,11.5
		c-0.878,0.879-2.03,1.318-3.182,1.318c-1.151,0-2.303-0.439-3.182-1.318l-8.295-8.295l-41.604,41.602l41.604,41.602l8.295-8.296
		c0.844-0.844,1.989-1.318,3.182-1.318c1.193,0,2.338,0.475,3.182,1.318l11.501,11.502c0.844,0.844,1.318,1.988,1.318,3.182
		c0,1.193-0.474,2.338-1.318,3.182l-11.501,11.5c-0.878,0.879-2.03,1.318-3.182,1.318c-1.151,0-2.303-0.439-3.182-1.318
		l-8.295-8.295l-41.604,41.604l41.604,41.602l8.295-8.295c1.758-1.758,4.607-1.758,6.364,0l11.501,11.501
		c0.844,0.844,1.318,1.988,1.318,3.182c0,1.193-0.474,2.338-1.318,3.182l-11.501,11.5c-0.878,0.879-2.03,1.318-3.182,1.318
		c-1.151,0-2.303-0.44-3.182-1.318l-8.295-8.295l-44.785,44.784c-0.844,0.844-1.989,1.318-3.182,1.318
		c-1.193,0-2.338-0.475-3.182-1.318l-44.783-44.784l-8.295,8.295c-0.878,0.879-2.03,1.318-3.182,1.318
		c-1.152,0-2.303-0.44-3.182-1.318l-11.5-11.5c-1.757-1.757-1.757-4.606,0-6.363l11.5-11.501c0.844-0.844,1.989-1.318,3.182-1.318
		c1.193,0,2.338,0.474,3.182,1.318l8.294,8.295l41.602-41.602l-41.602-41.604l-8.295,8.295c-0.878,0.879-2.03,1.318-3.182,1.318
		c-1.152,0-2.303-0.439-3.182-1.318l-11.5-11.5c-1.757-1.757-1.757-4.606,0-6.363l11.5-11.502c0.844-0.844,1.988-1.318,3.182-1.318
		c1.193,0,2.338,0.475,3.182,1.318l8.295,8.296l41.602-41.602l-41.602-41.602l-8.295,8.295c-0.878,0.879-2.03,1.318-3.182,1.318
		c-1.152,0-2.303-0.439-3.182-1.318l-11.5-11.5c-1.757-1.757-1.757-4.606,0-6.363l11.5-11.501c0.844-0.844,1.989-1.318,3.182-1.318
		c1.193,0,2.338,0.474,3.182,1.318l8.295,8.295l44.783-44.784c0.844-0.844,1.989-1.318,3.182-1.318c1.193,0,2.338,0.474,3.182,1.318
		l44.785,44.784l8.295-8.295c1.758-1.758,4.607-1.758,6.364,0l11.501,11.501C290.851,117.564,291.325,118.709,291.325,119.902z
		 M280.522,171.072l-15.643,15.643c-0.879,0.879-2.03,1.318-3.182,1.318c-1.152,0-2.303-0.439-3.182-1.318l-15.644-15.643
		c-0.844-0.844-1.318-1.988-1.318-3.182c0-1.193,0.474-2.338,1.318-3.182l15.644-15.643c0.844-0.844,1.989-1.318,3.182-1.318
		s2.338,0.475,3.182,1.318l15.643,15.643C282.279,166.466,282.279,169.316,280.522,171.072z M280.522,267.052l-15.643,15.642
		c-0.878,0.879-2.03,1.318-3.182,1.318s-2.303-0.44-3.182-1.317l-15.644-15.642c-0.844-0.845-1.318-1.989-1.318-3.183
		c0-1.193,0.474-2.338,1.318-3.182l15.644-15.644c0.844-0.844,1.989-1.318,3.182-1.318s2.338,0.475,3.182,1.318l15.643,15.644
		C282.279,262.445,282.279,265.295,280.522,267.052z M151.24,260.689l15.643-15.644c0.844-0.844,1.989-1.318,3.182-1.318
		s2.338,0.474,3.182,1.318l15.644,15.644c0.844,0.844,1.318,1.988,1.318,3.182c0,1.193-0.474,2.338-1.318,3.183l-15.644,15.642
		c-0.878,0.878-2.03,1.317-3.182,1.317c-1.152,0-2.303-0.44-3.182-1.318l-15.643-15.642
		C149.482,265.295,149.482,262.445,151.24,260.689z M151.24,164.709l15.643-15.643c0.844-0.844,1.989-1.318,3.182-1.318
		s2.338,0.474,3.182,1.318l15.644,15.643c0.844,0.844,1.318,1.988,1.318,3.182c0,1.193-0.474,2.338-1.318,3.182l-15.644,15.643
		c-0.878,0.879-2.03,1.318-3.182,1.318c-1.152,0-2.303-0.439-3.182-1.318l-15.643-15.643
		C149.482,169.316,149.482,166.466,151.24,164.709z"/>
	
		<rect x="163.503" y="161.329" transform="matrix(0.7071 0.7071 -0.7071 0.7071 168.5275 -71.0799)" style="fill:#C35B26;" width="13.123" height="13.123"/>
	
		<rect x="163.503" y="257.309" transform="matrix(0.7071 0.7071 -0.7071 0.7071 236.3952 -42.9681)" style="fill:#C35B26;" width="13.123" height="13.123"/>
	<path style="fill:#D19B6F;" d="M100.006,411.249h231.75V20.514h-231.75V411.249z M105.42,30.96c0-2.485,2.015-4.5,4.5-4.5h211.923
		c2.485,0,4.5,2.015,4.5,4.5v369.843c0,2.485-2.015,4.5-4.5,4.5H109.92c-2.485,0-4.5-2.015-4.5-4.5V30.96z"/>
	
		<rect x="255.136" y="257.309" transform="matrix(-0.7071 -0.7071 0.7071 -0.7071 260.1804 635.5024)" style="fill:#C35B26;" width="13.122" height="13.122"/>
	
		<rect x="255.136" y="161.33" transform="matrix(-0.7071 -0.7071 0.7071 -0.7071 328.0445 471.6516)" style="fill:#C35B26;" width="13.122" height="13.122"/>
	
		<rect x="271.692" y="116.27" transform="matrix(-0.7071 -0.7071 0.7071 -0.7071 385.2268 399.3688)" style="fill:#EDCB48;" width="7.264" height="7.264"/>
	<path style="fill:#7C5F53;" d="M109.92,405.303h211.923c2.485,0,4.5-2.015,4.5-4.5V30.96c0-2.485-2.015-4.5-4.5-4.5H109.92
		c-2.485,0-4.5,2.015-4.5,4.5v369.843C105.42,403.288,107.435,405.303,109.92,405.303z M114.42,35.46h202.923v360.843H114.42V35.46z
		"/>
	<path style="fill:#7C5F53;" d="M212.698,194.495l-18.203,18.204c-1.757,1.757-1.757,4.606,0,6.363l18.203,18.204
		c0.844,0.844,1.989,1.318,3.182,1.318c1.193,0,2.338-0.474,3.182-1.318l18.205-18.204c0.844-0.844,1.318-1.988,1.318-3.182
		c0-1.193-0.474-2.338-1.318-3.182l-18.205-18.204c-0.844-0.845-1.989-1.318-3.182-1.318
		C214.687,193.177,213.542,193.651,212.698,194.495z M227.721,215.881l-11.841,11.84l-11.839-11.84l11.839-11.84L227.721,215.881z"
		/>
	<path style="fill:#7C5F53;" d="M212.698,98.517l-18.203,18.204c-1.757,1.757-1.757,4.606,0,6.363l18.203,18.203
		c0.879,0.879,2.03,1.318,3.182,1.318c1.151,0,2.303-0.439,3.182-1.317l18.205-18.203c0.844-0.845,1.318-1.989,1.318-3.183
		c0-1.193-0.474-2.338-1.318-3.182l-18.205-18.204c-0.844-0.845-1.989-1.318-3.182-1.318
		C214.687,97.198,213.542,97.673,212.698,98.517z M227.721,119.902l-11.841,11.839l-11.839-11.839l11.839-11.84L227.721,119.902z"/>
	<path style="fill:#7C5F53;" d="M194.495,308.678c-1.757,1.757-1.757,4.606,0,6.363l18.203,18.204
		c0.844,0.844,1.989,1.318,3.182,1.318c1.193,0,2.338-0.474,3.182-1.318l18.205-18.204c0.844-0.844,1.318-1.988,1.318-3.182
		c0-1.193-0.474-2.338-1.318-3.183l-18.205-18.203c-1.756-1.755-4.605-1.758-6.364,0.001L194.495,308.678z M227.721,311.859
		l-11.841,11.84l-11.839-11.84l11.839-11.839L227.721,311.859z"/>
	<path style="fill:#7C5F53;" d="M170.064,188.033c1.151,0,2.303-0.439,3.182-1.318l15.644-15.643
		c0.844-0.844,1.318-1.988,1.318-3.182c0-1.193-0.474-2.338-1.318-3.182l-15.644-15.643c-0.844-0.845-1.989-1.318-3.182-1.318
		s-2.338,0.475-3.182,1.318l-15.643,15.643c-1.757,1.757-1.757,4.607,0,6.363l15.643,15.643
		C167.761,187.594,168.913,188.033,170.064,188.033z M170.064,158.611l9.279,9.279l-9.279,9.278l-9.279-9.278L170.064,158.611z"/>
	<path style="fill:#7C5F53;" d="M170.064,284.012c1.151,0,2.303-0.44,3.182-1.317l15.644-15.642
		c0.844-0.845,1.318-1.989,1.318-3.183c0-1.193-0.474-2.338-1.318-3.182l-15.644-15.644c-0.844-0.845-1.989-1.318-3.182-1.318
		s-2.338,0.475-3.182,1.318l-15.643,15.644c-1.757,1.757-1.757,4.607,0,6.363l15.643,15.642
		C167.761,283.572,168.913,284.012,170.064,284.012z M170.064,254.591l9.279,9.279l-9.279,9.278l-9.279-9.278L170.064,254.591z"/>
	<path style="fill:#7C5F53;" d="M272.142,105.22l-8.295,8.295L219.062,68.73c-0.844-0.845-1.989-1.318-3.182-1.318
		c-1.193,0-2.338,0.475-3.182,1.318l-44.783,44.784l-8.295-8.295c-0.844-0.845-1.989-1.318-3.182-1.318
		c-1.193,0-2.338,0.475-3.182,1.318l-11.5,11.501c-1.757,1.757-1.757,4.606,0,6.363l11.5,11.5c0.879,0.879,2.03,1.318,3.182,1.318
		c1.151,0,2.303-0.439,3.182-1.318l8.295-8.295l41.602,41.602l-41.602,41.602l-8.295-8.296c-0.844-0.844-1.989-1.318-3.182-1.318
		c-1.194,0-2.338,0.475-3.182,1.318l-11.5,11.502c-1.757,1.757-1.757,4.606,0,6.363l11.5,11.5c0.879,0.879,2.03,1.318,3.182,1.318
		c1.151,0,2.303-0.439,3.182-1.318l8.295-8.295l41.602,41.604l-41.602,41.602l-8.294-8.295c-0.844-0.845-1.989-1.318-3.182-1.318
		c-1.193,0-2.338,0.475-3.182,1.318l-11.5,11.501c-1.757,1.757-1.757,4.606,0,6.363l11.5,11.5c0.879,0.879,2.03,1.318,3.182,1.318
		c1.151,0,2.303-0.44,3.182-1.318l8.295-8.295l44.783,44.784c0.844,0.844,1.989,1.318,3.182,1.318c1.193,0,2.338-0.475,3.182-1.318
		l44.785-44.784l8.295,8.295c0.878,0.879,2.03,1.318,3.182,1.318c1.151,0,2.303-0.44,3.182-1.318l11.501-11.5
		c0.844-0.844,1.318-1.988,1.318-3.182c0-1.193-0.474-2.338-1.318-3.182l-11.501-11.501c-1.758-1.758-4.607-1.758-6.364,0
		l-8.295,8.295l-41.604-41.602l41.604-41.604l8.295,8.295c0.878,0.879,2.03,1.318,3.182,1.318c1.151,0,2.303-0.439,3.182-1.318
		l11.501-11.5c0.844-0.844,1.318-1.988,1.318-3.182c0-1.193-0.474-2.338-1.318-3.182l-11.501-11.502
		c-0.844-0.844-1.989-1.318-3.182-1.318c-1.193,0-2.338,0.475-3.182,1.318l-8.295,8.296l-41.604-41.602l41.604-41.602l8.295,8.295
		c0.878,0.879,2.03,1.318,3.182,1.318c1.151,0,2.303-0.439,3.182-1.318l11.501-11.5c0.844-0.844,1.318-1.988,1.318-3.182
		c0-1.193-0.474-2.338-1.318-3.182l-11.501-11.501C276.749,103.462,273.9,103.462,272.142,105.22z M156.438,125.038l-5.136-5.136
		l5.136-5.137l5.137,5.137L156.438,125.038z M156.438,221.017l-5.136-5.136l5.136-5.138l5.137,5.138L156.438,221.017z
		 M156.438,316.996l-5.136-5.136l5.136-5.137l5.137,5.137L156.438,316.996z M275.324,306.724l5.137,5.137l-5.137,5.137l-5.137-5.137
		L275.324,306.724z M275.324,210.743l5.137,5.138l-5.137,5.137l-5.137-5.137L275.324,210.743z M257.507,311.859l-41.627,41.626
		l-41.626-41.626l41.626-41.624L257.507,311.859z M257.507,215.881l-41.627,41.626l-41.626-41.626l41.626-41.626L257.507,215.881z
		 M215.88,161.526l-41.626-41.624l41.626-41.626l41.627,41.626L215.88,161.526z M275.324,125.039l-5.137-5.137l5.137-5.137
		l5.137,5.137L275.324,125.039z"/>
	<path style="fill:#7C5F53;" d="M261.697,147.747c-1.193,0-2.338,0.475-3.182,1.318l-15.644,15.643
		c-0.844,0.844-1.318,1.988-1.318,3.182c0,1.193,0.474,2.338,1.318,3.182l15.644,15.643c0.878,0.879,2.03,1.318,3.182,1.318
		c1.152,0,2.303-0.439,3.182-1.318l15.643-15.643c1.757-1.757,1.757-4.606,0-6.363l-15.643-15.643
		C264.036,148.222,262.891,147.747,261.697,147.747z M261.697,177.169l-9.279-9.278l9.279-9.279l9.279,9.279L261.697,177.169z"/>
	<path style="fill:#7C5F53;" d="M261.697,243.727c-1.193,0-2.338,0.475-3.182,1.318l-15.644,15.644
		c-0.844,0.844-1.318,1.988-1.318,3.182c0,1.193,0.474,2.338,1.318,3.183l15.644,15.642c0.878,0.878,2.03,1.317,3.182,1.317
		s2.303-0.44,3.182-1.318l15.643-15.642c1.758-1.757,1.758-4.606,0-6.363l-15.643-15.644
		C264.036,244.201,262.891,243.727,261.697,243.727z M261.697,273.148l-9.279-9.278l9.279-9.279l9.279,9.279L261.697,273.148z"/>
	<path style="fill:#7C5F53;" d="M301.863,47.854H129.898c-2.485,0-4.5,2.015-4.5,4.5v327.056c0,2.485,2.015,4.5,4.5,4.5h171.965
		c2.485,0,4.5-2.015,4.5-4.5V52.354C306.363,49.868,304.349,47.854,301.863,47.854z M261.697,58.717l9.278,9.278l-9.278,9.278
		l-9.279-9.278L261.697,58.717z M170.064,58.717l9.279,9.278l-9.279,9.278l-9.278-9.278L170.064,58.717z M170.064,373.046
		l-9.279-9.278l9.279-9.279l9.279,9.279L170.064,373.046z M261.697,373.046l-9.279-9.278l9.279-9.279l9.279,9.279L261.697,373.046z
		 M297.363,374.909h-24.802l7.96-7.96c1.758-1.757,1.758-4.607,0-6.363l-15.643-15.644c-0.844-0.844-1.989-1.318-3.182-1.318
		s-2.338,0.475-3.182,1.318l-15.644,15.644c-0.844,0.844-1.318,1.988-1.318,3.182c0,1.193,0.474,2.338,1.318,3.183l7.96,7.959
		H180.93l7.96-7.959c0.844-0.845,1.318-1.989,1.318-3.183c0-1.193-0.474-2.338-1.318-3.182l-15.644-15.644
		c-0.844-0.845-1.989-1.318-3.182-1.318s-2.338,0.475-3.182,1.318l-15.643,15.644c-1.757,1.757-1.757,4.606,0,6.363l7.96,7.96
		h-24.802V56.854h24.802l-7.96,7.96c-0.844,0.844-1.318,1.988-1.318,3.182c0,1.193,0.474,2.338,1.318,3.182l15.643,15.643
		c0.879,0.879,2.03,1.318,3.182,1.318c1.151,0,2.303-0.439,3.182-1.318l15.644-15.643c0.844-0.844,1.318-1.988,1.318-3.182
		c0-1.193-0.474-2.338-1.318-3.183l-7.96-7.959h69.902l-7.96,7.959c-0.844,0.845-1.318,1.989-1.318,3.183
		c0,1.193,0.474,2.338,1.318,3.182l15.644,15.643c0.878,0.879,2.03,1.318,3.182,1.318c1.152,0,2.303-0.439,3.182-1.318
		l15.643-15.643c0.844-0.844,1.318-1.988,1.318-3.182c0-1.193-0.474-2.338-1.318-3.182l-7.96-7.96h24.802V374.909z"/>
	<path style="fill:#7C5F53;" d="M336.256,0c-2.485,0-4.5,2.015-4.5,4.5v7.014h-6.047V4.5c0-2.485-2.015-4.5-4.5-4.5
		s-4.5,2.015-4.5,4.5v7.014h-6.047V4.5c0-2.485-2.015-4.5-4.5-4.5c-2.485,0-4.5,2.015-4.5,4.5v7.014h-6.047V4.5
		c0-2.485-2.015-4.5-4.5-4.5c-2.485,0-4.5,2.015-4.5,4.5v7.014h-6.047V4.5c0-2.485-2.015-4.5-4.5-4.5c-2.485,0-4.5,2.015-4.5,4.5
		v7.014h-6.047V4.5c0-2.485-2.015-4.5-4.5-4.5c-2.485,0-4.5,2.015-4.5,4.5v7.014h-6.047V4.5c0-2.485-2.015-4.5-4.5-4.5
		c-2.485,0-4.5,2.015-4.5,4.5v7.014h-6.047V4.5c0-2.485-2.015-4.5-4.5-4.5c-2.485,0-4.5,2.015-4.5,4.5v7.014h-6.047V4.5
		c0-2.485-2.015-4.5-4.5-4.5c-2.485,0-4.5,2.015-4.5,4.5v7.014h-6.047V4.5c0-2.485-2.015-4.5-4.5-4.5c-2.485,0-4.5,2.015-4.5,4.5
		v7.014h-6.047V4.5c0-2.485-2.015-4.5-4.5-4.5c-2.485,0-4.5,2.015-4.5,4.5v7.014h-6.047V4.5c0-2.485-2.015-4.5-4.5-4.5
		c-2.485,0-4.5,2.015-4.5,4.5v7.014h-6.047V4.5c0-2.485-2.015-4.5-4.5-4.5c-2.485,0-4.5,2.015-4.5,4.5v7.014h-6.047V4.5
		c0-2.485-2.015-4.5-4.5-4.5c-2.485,0-4.5,2.015-4.5,4.5v7.014H130.1V4.5c0-2.485-2.015-4.5-4.5-4.5c-2.485,0-4.5,2.015-4.5,4.5
		v7.014h-6.047V4.5c0-2.485-2.015-4.5-4.5-4.5c-2.485,0-4.5,2.015-4.5,4.5v7.014h-6.047V4.5c0-2.485-2.015-4.5-4.5-4.5
		c-2.485,0-4.5,2.015-4.5,4.5v422.762c0,2.485,2.015,4.5,4.5,4.5c2.485,0,4.5-2.015,4.5-4.5v-7.013h6.047v7.013
		c0,2.485,2.015,4.5,4.5,4.5c2.485,0,4.5-2.015,4.5-4.5v-7.013h6.047v7.013c0,2.485,2.015,4.5,4.5,4.5c2.485,0,4.5-2.015,4.5-4.5
		v-7.013h6.047v7.013c0,2.485,2.015,4.5,4.5,4.5c2.485,0,4.5-2.015,4.5-4.5v-7.013h6.047v7.013c0,2.485,2.015,4.5,4.5,4.5
		c2.485,0,4.5-2.015,4.5-4.5v-7.013h6.047v7.013c0,2.485,2.015,4.5,4.5,4.5c2.485,0,4.5-2.015,4.5-4.5v-7.013h6.047v7.013
		c0,2.485,2.015,4.5,4.5,4.5c2.485,0,4.5-2.015,4.5-4.5v-7.013h6.047v7.013c0,2.485,2.015,4.5,4.5,4.5c2.485,0,4.5-2.015,4.5-4.5
		v-7.013h6.047v7.013c0,2.485,2.015,4.5,4.5,4.5c2.485,0,4.5-2.015,4.5-4.5v-7.013h6.047v7.013c0,2.485,2.015,4.5,4.5,4.5
		c2.485,0,4.5-2.015,4.5-4.5v-7.013h6.047v7.013c0,2.485,2.015,4.5,4.5,4.5c2.485,0,4.5-2.015,4.5-4.5v-7.013h6.047v7.013
		c0,2.485,2.015,4.5,4.5,4.5c2.485,0,4.5-2.015,4.5-4.5v-7.013h6.047v7.013c0,2.485,2.015,4.5,4.5,4.5c2.485,0,4.5-2.015,4.5-4.5
		v-7.013h6.047v7.013c0,2.485,2.015,4.5,4.5,4.5c2.485,0,4.5-2.015,4.5-4.5v-7.013h6.047v7.013c0,2.485,2.015,4.5,4.5,4.5
		c2.485,0,4.5-2.015,4.5-4.5v-7.013h6.047v7.013c0,2.485,2.015,4.5,4.5,4.5s4.5-2.015,4.5-4.5v-7.013h6.047v7.013
		c0,2.485,2.015,4.5,4.5,4.5c2.485,0,4.5-2.015,4.5-4.5V4.5C340.756,2.015,338.741,0,336.256,0z M331.756,411.249h-231.75V20.514
		h231.75V411.249z"/>
</g>
</svg>